<svg width="116" height="32" viewBox="0 0 116 32" fill="none" xmlns="http://www.w3.org/2000/svg">
<path d="M9.96591 17.1818H13.7841L16.0455 20.1136L17.6591 22.0227L21.5341 27H17.4432L14.8068 23.6591L13.6818 22.0682L9.96591 17.1818ZM22.0909 13.3636C22.0909 15.8712 21.6212 18.0189 20.6818 19.8068C19.75 21.5871 18.4773 22.9508 16.8636 23.8977C15.2576 24.8447 13.4356 25.3182 11.3977 25.3182C9.35985 25.3182 7.53409 24.8447 5.92045 23.8977C4.31439 22.9432 3.04167 21.5758 2.10227 19.7955C1.17045 18.0076 0.704545 15.8636 0.704545 13.3636C0.704545 10.8561 1.17045 8.71212 2.10227 6.93182C3.04167 5.14394 4.31439 3.77651 5.92045 2.82954C7.53409 1.88257 9.35985 1.40909 11.3977 1.40909C13.4356 1.40909 15.2576 1.88257 16.8636 2.82954C18.4773 3.77651 19.75 5.14394 20.6818 6.93182C21.6212 8.71212 22.0909 10.8561 22.0909 13.3636ZM17.8523 13.3636C17.8523 11.5985 17.5758 10.1098 17.0227 8.89773C16.4773 7.67803 15.7197 6.75758 14.75 6.13636C13.7803 5.50758 12.6629 5.19318 11.3977 5.19318C10.1326 5.19318 9.01515 5.50758 8.04545 6.13636C7.07576 6.75758 6.31439 7.67803 5.76136 8.89773C5.21591 10.1098 4.94318 11.5985 4.94318 13.3636C4.94318 15.1288 5.21591 16.6212 5.76136 17.8409C6.31439 19.053 7.07576 19.9735 8.04545 20.6023C9.01515 21.2235 10.1326 21.5341 11.3977 21.5341C12.6629 21.5341 13.7803 21.2235 14.75 20.6023C15.7197 19.9735 16.4773 19.053 17.0227 17.8409C17.5758 16.6212 17.8523 15.1288 17.8523 13.3636ZM37.0511 17.6591V7.54545H41.1648V25H37.1761V21.8977H36.9943C36.6004 22.875 35.9527 23.6742 35.0511 24.2955C34.1572 24.9167 33.0549 25.2273 31.7443 25.2273C30.6004 25.2273 29.589 24.9735 28.7102 24.4659C27.839 23.9508 27.1572 23.2045 26.6648 22.2273C26.1723 21.2424 25.9261 20.053 25.9261 18.6591V7.54545H30.0398V18.0227C30.0398 19.1288 30.3428 20.0076 30.9489 20.6591C31.5549 21.3106 32.3504 21.6364 33.3352 21.6364C33.9413 21.6364 34.5284 21.4886 35.0966 21.1932C35.6648 20.8977 36.1307 20.4583 36.4943 19.875C36.8655 19.2841 37.0511 18.5455 37.0511 17.6591ZM45.3949 25V7.54545H49.5085V25H45.3949ZM47.4631 5.06818C46.8116 5.06818 46.2509 4.85227 45.7812 4.42045C45.3116 3.98106 45.0767 3.45454 45.0767 2.84091C45.0767 2.2197 45.3116 1.69318 45.7812 1.26136C46.2509 0.821969 46.8116 0.602272 47.4631 0.602272C48.1222 0.602272 48.6828 0.821969 49.1449 1.26136C49.6146 1.69318 49.8494 2.2197 49.8494 2.84091C49.8494 3.45454 49.6146 3.98106 49.1449 4.42045C48.6828 4.85227 48.1222 5.06818 47.4631 5.06818ZM53.5114 25V22.3864L62.5114 11.1023V10.9545H53.8068V7.54545H67.5455V10.3523L58.9773 21.4432V21.5909H67.8409V25H53.5114Z" fill="#177807"/>
<path d="M71.7074 25V7.54545H75.821V25H71.7074ZM73.7756 5.06818C73.1241 5.06818 72.5634 4.85227 72.0938 4.42045C71.6241 3.98106 71.3892 3.45454 71.3892 2.84091C71.3892 2.2197 71.6241 1.69318 72.0938 1.26136C72.5634 0.821969 73.1241 0.602272 73.7756 0.602272C74.4347 0.602272 74.9953 0.821969 75.4574 1.26136C75.9271 1.69318 76.1619 2.2197 76.1619 2.84091C76.1619 3.45454 75.9271 3.98106 75.4574 4.42045C74.9953 4.85227 74.4347 5.06818 73.7756 5.06818ZM80.0511 31.5455V7.54545H84.0966V10.4318H84.3352C84.5473 10.0076 84.8466 9.55682 85.233 9.07955C85.6193 8.5947 86.142 8.18182 86.8011 7.84091C87.4602 7.49242 88.3011 7.31818 89.3239 7.31818C90.6723 7.31818 91.8883 7.66288 92.9716 8.35227C94.0625 9.03409 94.9261 10.0455 95.5625 11.3864C96.2064 12.7197 96.5284 14.3561 96.5284 16.2955C96.5284 18.2121 96.214 19.8409 95.5852 21.1818C94.9564 22.5227 94.1004 23.5455 93.017 24.25C91.9337 24.9545 90.7064 25.3068 89.3352 25.3068C88.3352 25.3068 87.5057 25.1402 86.8466 24.8068C86.1875 24.4735 85.6572 24.072 85.2557 23.6023C84.8617 23.125 84.5549 22.6742 84.3352 22.25H84.1648V31.5455H80.0511ZM84.0852 16.2727C84.0852 17.4015 84.2443 18.3902 84.5625 19.2386C84.8883 20.0871 85.3542 20.75 85.9602 21.2273C86.5739 21.697 87.3163 21.9318 88.1875 21.9318C89.0966 21.9318 89.858 21.6894 90.4716 21.2045C91.0852 20.7121 91.5473 20.0417 91.858 19.1932C92.1761 18.3371 92.3352 17.3636 92.3352 16.2727C92.3352 15.1894 92.1799 14.2273 91.8693 13.3864C91.5587 12.5455 91.0966 11.8864 90.483 11.4091C89.8693 10.9318 89.1042 10.6932 88.1875 10.6932C87.3087 10.6932 86.5625 10.9242 85.9489 11.3864C85.3352 11.8485 84.8693 12.4962 84.5511 13.3295C84.2405 14.1629 84.0852 15.1439 84.0852 16.2727ZM102.014 31.5455C101.454 31.5455 100.935 31.5 100.457 31.4091C99.9877 31.3258 99.6127 31.2273 99.3324 31.1136L100.287 27.9091C100.885 28.0833 101.42 28.1667 101.889 28.1591C102.359 28.1515 102.772 28.0038 103.128 27.7159C103.491 27.4356 103.798 26.9659 104.048 26.3068L104.401 25.3636L98.071 7.54545H102.435L106.457 20.7273H106.639L110.673 7.54545H115.048L108.06 27.1136C107.734 28.0379 107.302 28.8295 106.764 29.4886C106.226 30.1553 105.567 30.6629 104.787 31.0114C104.014 31.3674 103.09 31.5455 102.014 31.5455Z" fill="#E7E7E7"/>
</svg>
