<svg width="108" height="32" viewBox="0 0 108 32" fill="none" xmlns="http://www.w3.org/2000/svg">
<path d="M9.96591 17.1818H13.7841L16.0455 20.1136L17.6591 22.0227L21.5341 27H17.4432L14.8068 23.6591L13.6818 22.0682L9.96591 17.1818ZM22.0909 13.3636C22.0909 15.8712 21.6212 18.0189 20.6818 19.8068C19.75 21.5871 18.4773 22.9508 16.8636 23.8977C15.2576 24.8447 13.4356 25.3182 11.3977 25.3182C9.35985 25.3182 7.53409 24.8447 5.92045 23.8977C4.31439 22.9432 3.04167 21.5758 2.10227 19.7955C1.17045 18.0076 0.704545 15.8636 0.704545 13.3636C0.704545 10.8561 1.17045 8.71212 2.10227 6.93182C3.04167 5.14394 4.31439 3.77651 5.92045 2.82954C7.53409 1.88257 9.35985 1.40909 11.3977 1.40909C13.4356 1.40909 15.2576 1.88257 16.8636 2.82954C18.4773 3.77651 19.75 5.14394 20.6818 6.93182C21.6212 8.71212 22.0909 10.8561 22.0909 13.3636ZM17.8523 13.3636C17.8523 11.5985 17.5758 10.1098 17.0227 8.89773C16.4773 7.67803 15.7197 6.75758 14.75 6.13636C13.7803 5.50758 12.6629 5.19318 11.3977 5.19318C10.1326 5.19318 9.01515 5.50758 8.04545 6.13636C7.07576 6.75758 6.31439 7.67803 5.76136 8.89773C5.21591 10.1098 4.94318 11.5985 4.94318 13.3636C4.94318 15.1288 5.21591 16.6212 5.76136 17.8409C6.31439 19.053 7.07576 19.9735 8.04545 20.6023C9.01515 21.2235 10.1326 21.5341 11.3977 21.5341C12.6629 21.5341 13.7803 21.2235 14.75 20.6023C15.7197 19.9735 16.4773 19.053 17.0227 17.8409C17.5758 16.6212 17.8523 15.1288 17.8523 13.3636ZM37.0511 17.6591V7.54545H41.1648V25H37.1761V21.8977H36.9943C36.6004 22.875 35.9527 23.6742 35.0511 24.2955C34.1572 24.9167 33.0549 25.2273 31.7443 25.2273C30.6004 25.2273 29.589 24.9735 28.7102 24.4659C27.839 23.9508 27.1572 23.2045 26.6648 22.2273C26.1723 21.2424 25.9261 20.053 25.9261 18.6591V7.54545H30.0398V18.0227C30.0398 19.1288 30.3428 20.0076 30.9489 20.6591C31.5549 21.3106 32.3504 21.6364 33.3352 21.6364C33.9413 21.6364 34.5284 21.4886 35.0966 21.1932C35.6648 20.8977 36.1307 20.4583 36.4943 19.875C36.8655 19.2841 37.0511 18.5455 37.0511 17.6591ZM45.3949 25V7.54545H49.5085V25H45.3949ZM47.4631 5.06818C46.8116 5.06818 46.2509 4.85227 45.7812 4.42045C45.3116 3.98106 45.0767 3.45454 45.0767 2.84091C45.0767 2.2197 45.3116 1.69318 45.7812 1.26136C46.2509 0.821969 46.8116 0.602272 47.4631 0.602272C48.1222 0.602272 48.6828 0.821969 49.1449 1.26136C49.6146 1.69318 49.8494 2.2197 49.8494 2.84091C49.8494 3.45454 49.6146 3.98106 49.1449 4.42045C48.6828 4.85227 48.1222 5.06818 47.4631 5.06818ZM53.5114 25V22.3864L62.5114 11.1023V10.9545H53.8068V7.54545H67.5455V10.3523L58.9773 21.4432V21.5909H67.8409V25H53.5114Z" fill="#177807"/>
<path d="M71.7074 25V7.54545H75.821V25H71.7074ZM73.7756 5.06818C73.1241 5.06818 72.5634 4.85227 72.0938 4.42045C71.6241 3.98106 71.3892 3.45454 71.3892 2.84091C71.3892 2.2197 71.6241 1.69318 72.0938 1.26136C72.5634 0.821969 73.1241 0.602272 73.7756 0.602272C74.4347 0.602272 74.9953 0.821969 75.4574 1.26136C75.9271 1.69318 76.1619 2.2197 76.1619 2.84091C76.1619 3.45454 75.9271 3.98106 75.4574 4.42045C74.9953 4.85227 74.4347 5.06818 73.7756 5.06818ZM88.892 7.54545V10.7273H78.5739V7.54545H88.892ZM81.1534 25V5.89773C81.1534 4.72348 81.3958 3.74621 81.8807 2.96591C82.3731 2.18561 83.0322 1.60227 83.858 1.21591C84.6837 0.829544 85.6004 0.636362 86.608 0.636362C87.3201 0.636362 87.9527 0.693181 88.5057 0.806818C89.0587 0.920454 89.4678 1.02273 89.733 1.11364L88.9148 4.29545C88.7405 4.24242 88.5208 4.18939 88.2557 4.13636C87.9905 4.07576 87.6951 4.04545 87.3693 4.04545C86.6042 4.04545 86.0625 4.23106 85.7443 4.60227C85.4337 4.96591 85.2784 5.48864 85.2784 6.17045V25H81.1534ZM94.6705 31.5455C94.1098 31.5455 93.5909 31.5 93.1136 31.4091C92.6439 31.3258 92.2689 31.2273 91.9886 31.1136L92.9432 27.9091C93.5417 28.0833 94.0758 28.1667 94.5455 28.1591C95.0152 28.1515 95.428 28.0038 95.7841 27.7159C96.1477 27.4356 96.4545 26.9659 96.7045 26.3068L97.0568 25.3636L90.7273 7.54545H95.0909L99.1136 20.7273H99.2955L103.33 7.54545H107.705L100.716 27.1136C100.39 28.0379 99.9583 28.8295 99.4205 29.4886C98.8826 30.1553 98.2235 30.6629 97.4432 31.0114C96.6705 31.3674 95.7462 31.5455 94.6705 31.5455Z" fill="#E7E7E7"/>
</svg>
