<svg width="26" height="24" viewBox="0 0 26 24" fill="none" xmlns="http://www.w3.org/2000/svg">
<path d="M15.5921 1.38289H6.97441C6.41655 1.38289 5.90771 1.46297 5.44789 1.62119C4.98573 1.78135 4.55858 2.02355 4.16878 2.3517L4.17111 2.35365C4.01239 2.48647 3.87234 2.6232 3.7463 2.76383C3.04139 2.78727 2.36449 2.87516 1.71326 3.02751C1.73193 2.98454 1.75294 2.94157 1.77395 2.90055C2.05171 2.33802 2.46019 1.83018 3.00404 1.37703L3.00637 1.37898L3.00871 1.37703C3.55256 0.921927 4.15944 0.580111 4.827 0.349629C5.4899 0.115241 6.20648 0 6.97441 0H10.8794H19.4971C20.2627 0 20.9816 0.115241 21.6515 0.345723C22.3237 0.578158 22.9306 0.919974 23.4721 1.37312L23.4698 1.37508C24.016 1.83213 24.4245 2.33998 24.6999 2.89665C24.9753 3.45723 25.113 4.05687 25.113 4.69948V4.71706H23.4605V4.69948C23.4605 4.23266 23.3648 3.80686 23.1757 3.42207C22.9843 3.03533 22.6949 2.67789 22.3051 2.3517L22.3027 2.34974L22.3004 2.3517C21.9059 2.0216 21.4811 1.7794 21.0213 1.62119C20.5615 1.46297 20.0503 1.38289 19.4947 1.38289H15.5921ZM20.4377 7.80122H25.8226V8.89308L22.8886 11.3893H26V12.6628H20.2137V11.4538L23.0076 9.07669H20.4377V7.80122ZM17.0346 5.95737H19.2613V7.22111H17.0346V5.95737ZM17.0346 7.80122H19.2613V12.6628H17.0346V7.80122ZM15.6014 12.6628H13.5217V11.8796C13.2112 12.2019 12.9008 12.4323 12.588 12.5691C12.2729 12.7058 11.8878 12.7742 11.428 12.7742C10.8164 12.7742 10.3379 12.6218 9.99012 12.3132C9.64234 12.0065 9.46961 11.5339 9.46961 10.8951V7.80122H11.7081V10.4791C11.7081 10.7838 11.7757 11.0006 11.9088 11.1295C12.0442 11.2584 12.2309 11.321 12.4737 11.321C12.7374 11.321 12.9522 11.235 13.1225 11.0651C13.2906 10.8932 13.3746 10.5865 13.3746 10.1432V7.79927H15.6014V12.6628ZM7.43191 11.6784C7.74001 11.8581 7.94075 11.9714 8.03645 12.0163C8.1765 12.0827 8.3679 12.1608 8.60831 12.2507L7.92441 13.4109C7.57896 13.2703 7.23584 13.1043 6.89739 12.9109C6.55894 12.7175 6.32086 12.571 6.18781 12.4753C5.64162 12.6726 4.95772 12.7742 4.13143 12.7742C2.91301 12.7742 1.95368 12.5085 1.24877 11.9772C0.415477 11.3522 0 10.4693 0 9.33256C0 8.22898 0.364126 7.37151 1.09238 6.76015C1.82063 6.14879 2.83365 5.84408 4.14077 5.84408C5.47123 5.84408 6.49592 6.14293 7.2195 6.74062C7.94308 7.33635 8.30488 8.19187 8.30488 9.30326C8.30488 10.2936 8.01311 11.0846 7.43191 11.6784ZM5.53425 10.6158C5.73265 10.3209 5.83069 9.87947 5.83069 9.28959C5.83069 8.61377 5.67897 8.13132 5.3802 7.84029C5.07909 7.55121 4.66361 7.40667 4.13376 7.40667C3.63893 7.40667 3.23979 7.55511 2.93402 7.85005C2.62591 8.14499 2.47419 8.60791 2.47419 9.2349C2.47419 9.96736 2.62358 10.4811 2.92235 10.776C3.22345 11.0709 3.63192 11.2194 4.15244 11.2194C4.3205 11.2194 4.47922 11.2057 4.6286 11.1784C4.41853 11.0104 4.09175 10.8522 3.64126 10.7018L4.02873 9.95759C4.24814 9.9908 4.42086 10.0318 4.54224 10.0806C4.66595 10.1295 4.90403 10.2564 5.26115 10.4654C5.34518 10.5143 5.43621 10.5651 5.53425 10.6158ZM3.31681 15.8349C3.50588 16.2021 3.79065 16.542 4.16644 16.8584L4.20379 16.8916C4.58425 17.2002 4.99973 17.4346 5.45022 17.5889C5.91005 17.7471 6.41889 17.8272 6.97441 17.8272H10.6764C11.1339 17.8272 11.5026 18.1377 11.5026 18.5186C11.5026 18.6007 11.4863 18.6807 11.4536 18.755C11.3183 19.1925 11.1619 19.6222 10.9891 20.0402C10.8071 20.4797 10.6087 20.9035 10.3916 21.3078C10.2982 21.4895 10.1909 21.6672 10.0718 21.843C10.7884 21.5715 11.4606 21.2629 12.0909 20.9152H12.0932L12.0909 20.9133C12.7864 20.5324 13.4283 20.1105 14.0212 19.6456C14.6211 19.1749 15.1672 18.6612 15.6644 18.1084C15.8255 17.9287 16.0729 17.833 16.3227 17.833V17.8311H19.4994C20.0549 17.8311 20.5638 17.751 21.0236 17.5928C21.4881 17.4326 21.9176 17.1885 22.3097 16.8623C22.6995 16.5361 22.989 16.1786 23.1804 15.7919L23.199 15.7528H24.931C24.8703 15.9462 24.7956 16.1337 24.7045 16.3173C24.4291 16.876 24.0183 17.3857 23.4721 17.8428C22.9259 18.296 22.3191 18.6397 21.6515 18.8702C20.9839 19.1007 20.2674 19.2179 19.5018 19.2179H16.7241C16.2363 19.7355 15.7111 20.214 15.1486 20.6555C14.481 21.1809 13.7621 21.6555 12.9942 22.0755L12.9918 22.0735C12.2192 22.4993 11.3953 22.8724 10.5246 23.1908C9.65401 23.5091 8.72735 23.7748 7.74935 23.9877C7.45992 24.0502 7.1378 23.9779 6.9254 23.7767C6.62429 23.4916 6.65697 23.056 6.99542 22.804C7.43191 22.4798 7.80303 22.1536 8.11114 21.8255L8.14615 21.7844C8.45659 21.4485 8.70168 21.1067 8.88141 20.7629L8.88374 20.757C9.08681 20.3781 9.27121 19.9914 9.43227 19.5988C9.48362 19.4738 9.53497 19.3468 9.58398 19.2179H6.97441C6.20882 19.2179 5.49223 19.1007 4.82467 18.8702C4.17578 18.6456 3.58524 18.3155 3.05072 17.8819C3.03205 17.8702 3.01571 17.8565 2.99937 17.8428C2.45785 17.3897 2.04704 16.8818 1.77161 16.3193C1.65024 16.0732 1.55687 15.8193 1.48685 15.5556C2.06572 15.6962 2.67493 15.7919 3.31681 15.8349Z" fill="#A8A8A8"/>
</svg>
